<svg
  xmlns="http://www.w3.org/2000/svg"
  width="20"
  height="20"
  viewBox="0 0 500 500"
>
  <path
    d="M345.68,484.26c-9.07-.41-18-2.29-18-13.07,0-8.62.3-36.81.3-71.83,0-24.43-8.36-40.36-17.75-48.48,58.29-6.48,119.53-28.62,119.53-129.16,0-28.58-10.16-51.93-26.94-70.27,2.71-6.59,11.68-33.22-2.57-69.27,0,0-22-7-71.91,26.83a248.26,248.26,0,0,0-131.1,0c-50-33.87-72-26.83-72-26.83-14.21,36.05-5.25,62.68-2.54,69.27-16.74,18.34-27,41.69-27,70.27C95.76,322,156.88,344.47,215,351.09c-7.49,6.53-14.27,18.08-16.62,35-14.94,6.69-52.83,18.26-76.18-21.76,0,0-13.84-25.13-40.13-27,0,0-25.54-.33-1.79,15.92,0,0,17.16,8,29.07,38.3,0,0,15.37,46.72,88.19,30.89.11,21.87.36,42.49.36,48.73,0,9.19-5.07,11.81-13.69,12.47-34.24,2.63-69.31.58-103.65.58H58.75a43.37,43.37,0,0,1-43.37-43.37V58.37A43.37,43.37,0,0,1,58.75,15h382.5a43.37,43.37,0,0,1,43.37,43.37v382.5a43.37,43.37,0,0,1-43.37,43.37H403.79c-16.28,0-32.56.85-48.83.24C352.1,484.37,348.88,484.41,345.68,484.26Z"
    style="
      fill: none;
      stroke: #ce9178;
      stroke-miterlimit: 10;
      stroke-width: 25px;
    "
  />
</svg>
