<svg
  width="20"
  height="20"
  viewBox="0 0 128 128"
  fill="none"
  xmlns="http://www.w3.org/2000/svg"
>
  <rect width="128" height="128" fill="#49021F" />
  <path
    d="M45.4688 37.8698V90.8698C45.4688 91.4345 45.2151 91.7165 44.7077 91.7158H35.0313C34.5782 91.7158 34.355 91.4346 34.355 90.8698V37.8698C34.355 37.4189 34.6072 37.1929 35.1161 37.1929H44.7925C44.8844 37.1798 44.9781 37.1883 45.0661 37.2177C45.1542 37.2471 45.2342 37.2966 45.2998 37.3623C45.3654 37.428 45.4149 37.508 45.4442 37.5961C45.4735 37.6842 45.482 37.7779 45.4688 37.8698Z"
    fill="#FF3366"
  />
  <path
    d="M76.8727 92.8636C72.9801 92.9224 69.1233 92.1134 65.5825 90.4953C62.2841 88.9689 59.5271 86.4769 57.6762 83.3491C55.6415 79.6981 54.6467 75.559 54.8001 71.3821C54.7686 67.5006 55.7606 63.6794 57.6762 60.3034C59.6489 56.8642 62.5507 54.0505 66.0489 52.1845C70.1419 50.0526 74.7128 49.0044 79.3257 49.14C79.607 49.14 79.9734 49.1541 80.4252 49.1824C80.8761 49.2114 81.8638 49.2538 82.4854 49.3091V33.2984C82.4854 32.9049 82.654 32.7068 82.9933 32.7068H92.799C92.8678 32.6971 92.938 32.7035 93.004 32.7256C93.0699 32.7476 93.1298 32.7847 93.179 32.8339C93.2281 32.8831 93.2652 32.9431 93.2871 33.0091C93.3091 33.075 93.3155 33.1452 93.3057 33.2141V82.5456C93.3057 83.5048 93.3481 84.548 93.4329 85.675C93.5177 86.8034 93.588 87.8181 93.6438 88.7191C93.6544 88.8949 93.6116 89.0698 93.521 89.2208C93.4303 89.3718 93.2961 89.4918 93.136 89.5651C90.5232 90.7086 87.7919 91.5596 84.992 92.1025C82.3135 92.5967 79.5964 92.8515 76.8727 92.8636ZM82.4853 82.3765V59.2883C81.8744 59.1673 81.2569 59.0827 80.636 59.035C80.0601 58.9768 79.4816 58.9485 78.9027 58.9502C76.8506 58.9297 74.8226 59.3933 72.9831 60.3033C71.012 61.2423 69.3691 62.7528 68.2679 64.6381C67.1668 66.5235 66.6585 68.6966 66.809 70.8747C66.7676 72.7183 67.0689 74.5535 67.6974 76.2871C68.2087 77.6839 69.0163 78.9536 70.0647 80.0087C71.0695 80.9787 72.2855 81.7022 73.6172 82.1226C75.024 82.5782 76.4945 82.8067 77.9732 82.7995C78.7612 82.7995 79.4955 82.7716 80.1719 82.7147C80.951 82.666 81.7248 82.5529 82.4853 82.3765Z"
    fill="#FF3366"
  />
</svg>
