<svg
  xmlns="http://www.w3.org/2000/svg"
  width="20"
  height="20"
  viewBox="0 0 500 500"
>
  <g>
    <circle
      cx="72.06"
      cy="72"
      r="57"
      style="
        fill: none;
        stroke: #579cd6;
        stroke-miterlimit: 10;
        stroke-width: 30px;
      "
    />
    <rect
      x="24.87"
      y="172.99"
      width="95.03"
      height="312.01"
      rx="19"
      style="
        fill: none;
        stroke: #579cd6;
        stroke-miterlimit: 10;
        stroke-width: 30px;
      "
    />
    <path
      d="M474.38,236.86C468,221.23,459.25,207.27,444.47,195c-16.87-14-37.21-24.35-59-27.27-26.58-3.59-61.25,2.42-84.71,15.55-10.1,5.66-19.09,13.48-26.94,21.94l-1.92,2.06c-4.44,5.55-8.07,1.55-8.07-8.9V192a19.06,19.06,0,0,0-19-19h-52a19.06,19.06,0,0,0-19,19V466a19.06,19.06,0,0,0,19,19h67a9,9,0,0,0,9-9c0-49.78.32-99.58-.2-149.35-.28-27.75,11-55.85,36.88-69.15,23.32-12,55.15-6.55,70.92,14.38,13.24,17.56,13.73,41.3,13.66,63.3C390,385.09,389.77,466,389.77,466a19,19,0,0,0,18.94,19h57.16a19.07,19.07,0,0,0,19-19s0-165.91.06-182.26S480.56,252.08,474.38,236.86Z"
      style="
        fill: none;
        stroke: #579cd6;
        stroke-miterlimit: 10;
        stroke-width: 30px;
      "
    />
  </g>
</svg>
