<svg xmlns="http://www.w3.org/2000/svg" viewBox="0 0 24.21 24.21">
  <defs>
    <style>
      .cls-1 {
        fill: #d7ba7d;
      }
      .cls-2 {
        fill: #9bdcfe;
      }
      .cls-3 {
        fill: #343434;
      }
      @media (prefers-color-scheme: dark) {
        .cls-1 {
          fill: #ca9d3b;
        }
        .cls-2 {
          fill: #3c8fbb;
        }
        .cls-3 {
          fill: #f4f4f4;
        }
      }
    </style>
  </defs>
  <g id="Layer_1" data-name="Layer 1" class="cls-3">
    <circle cx="12.11" cy="12.11" r="12.11" />
    <path
      class="cls-1"
      d="M8.91,16.78l-1.09,3a.44.44,0,0,1-.28.22,2.28,2.28,0,0,1-.68.08,1.87,1.87,0,0,1-.38,0A.57.57,0,0,1,6.25,20a.19.19,0,0,1-.08-.15.49.49,0,0,1,0-.22l1.13-2.86a.48.48,0,0,1-.15-.11.54.54,0,0,1-.1-.18L4.16,8.64a.79.79,0,0,1-.07-.3.21.21,0,0,1,.07-.17.55.55,0,0,1,.24-.09l.43,0h.43a1.09,1.09,0,0,1,.25,0,.28.28,0,0,1,.13.11.85.85,0,0,1,.09.19L8.07,15h0l2.26-6.62a.39.39,0,0,1,.14-.22.56.56,0,0,1,.23-.08l.45,0,.42,0a.55.55,0,0,1,.24.09.21.21,0,0,1,.08.17.83.83,0,0,1-.06.28Z"
    />
    <path
      class="cls-2"
      d="M20.13,16.56a.24.24,0,0,1,0,.12.2.2,0,0,1-.11.09.81.81,0,0,1-.21.05l-.31,0-.32,0-.21-.05a.27.27,0,0,1-.12-.09.24.24,0,0,1,0-.12V15.47a5.63,5.63,0,0,1-1.35,1.1,3.06,3.06,0,0,1-1.53.39,3.21,3.21,0,0,1-1.54-.35,3,3,0,0,1-1-.95,4.49,4.49,0,0,1-.58-1.41,7.77,7.77,0,0,1-.18-1.7,7.46,7.46,0,0,1,.23-1.91,4.19,4.19,0,0,1,.68-1.46,3,3,0,0,1,1.1-.93,3.58,3.58,0,0,1,1.53-.32,2.8,2.8,0,0,1,1.32.32,4.57,4.57,0,0,1,1.18.92V4.4a.27.27,0,0,1,0-.12.34.34,0,0,1,.13-.1l.23,0a1.94,1.94,0,0,1,.36,0,2.12,2.12,0,0,1,.38,0,.9.9,0,0,1,.22,0,.34.34,0,0,1,.13.1.19.19,0,0,1,0,.12Zm-1.52-5.78a5.8,5.8,0,0,0-1.18-1.16,2.08,2.08,0,0,0-1.19-.39,1.73,1.73,0,0,0-1,.27,2.16,2.16,0,0,0-.65.72,3.25,3.25,0,0,0-.36,1,5.47,5.47,0,0,0-.12,1.15,7,7,0,0,0,.1,1.21,3.32,3.32,0,0,0,.33,1.05,2,2,0,0,0,.63.74,1.63,1.63,0,0,0,1,.28,2.25,2.25,0,0,0,.58-.08,2.9,2.9,0,0,0,.57-.27,5,5,0,0,0,.61-.5,7.67,7.67,0,0,0,.67-.76Z"
    />
  </g>
</svg>
